<svg width="93" height="93" viewBox="0 0 93 93" fill="none" xmlns="http://www.w3.org/2000/svg">
<circle cx="46.5" cy="46.5" r="42" fill="#5BC3E3" stroke="white" stroke-width="9"/>
<path d="M61.3598 46.5086H50.8839V38.0909H61.3598C61.8823 38.0909 62.306 37.6673 62.306 37.1447C62.306 36.6222 61.8823 36.1985 61.3598 36.1985H50.7466C50.4693 35.4974 49.7852 35 48.9866 35H47.0942C46.7497 35 46.4266 35.093 46.148 35.2546C45.8695 35.093 45.5464 35 45.2019 35H43.3095C42.5109 35 41.8268 35.4974 41.5495 36.1985H30.9462C30.4236 36.1985 30 36.6222 30 37.1447C30 37.6673 30.4236 38.0909 30.9462 38.0909H41.4171V46.5086H30.9462C30.4236 46.5086 30 46.9323 30 47.4548C30 47.9774 30.4236 48.401 30.9462 48.401H41.5495C41.8268 49.102 42.5109 49.5995 43.3095 49.5995H45.2019C45.5464 49.5995 45.8695 49.5064 46.148 49.3449C46.4266 49.5064 46.7497 49.5995 47.0942 49.5995H48.9866C49.7851 49.5995 50.4693 49.102 50.7466 48.401H61.3598C61.8823 48.401 62.306 47.9774 62.306 47.4548C62.306 46.9323 61.8823 46.5086 61.3598 46.5086ZM43.3095 47.7071L43.3093 36.8923H45.2019V47.7071H43.3095ZM48.9866 47.7071H47.0942V36.8923H48.9866V47.7071Z" fill="white"/>
<path d="M47.7588 53.0508C46.8842 52.1595 46.5301 51.9963 46.1481 51.9963C45.7661 51.9963 45.4121 52.1595 44.5374 53.0508C43.9845 53.6143 43.3793 54.3187 42.8333 55.0343C41.7269 56.4843 40.408 58.568 40.408 60.2597C40.408 63.4249 42.983 65.9999 46.1481 65.9999C49.3133 65.9999 51.8883 63.4249 51.8883 60.2597C51.8883 58.568 50.5694 56.4843 49.4629 55.0343C48.9168 54.3186 48.3117 53.6142 47.7588 53.0508ZM46.1481 64.1075C44.0264 64.1075 42.3003 62.3814 42.3003 60.2597C42.3003 59.423 42.9675 58.0375 44.1307 56.4583C44.9203 55.3865 45.6928 54.5557 46.1481 54.1205C46.6034 54.5557 47.376 55.3865 48.1655 56.4583C49.3287 58.0375 49.9959 59.423 49.9959 60.2597C49.9959 62.3814 48.2698 64.1075 46.1481 64.1075Z" fill="white"/>
</svg>
