<svg width="93" height="93" viewBox="0 0 93 93" fill="none" xmlns="http://www.w3.org/2000/svg">
<circle cx="46.5" cy="46.5" r="42" fill="#5BC3E3" stroke="white" stroke-width="9"/>
<path d="M55.5475 29.2024L55.5472 29.2022C55.3689 29.0257 55.1277 28.925 54.875 28.925H37.375C34.9221 28.925 32.925 30.9203 32.925 33.375V59.625C32.925 62.0797 34.9221 64.075 37.375 64.075H56.625C59.0779 64.075 61.075 62.0797 61.075 59.625V35.125C61.075 34.8722 60.9743 34.6311 60.7978 34.4527L60.7975 34.4524L55.5475 29.2024ZM59.175 59.625C59.175 61.0308 58.0308 62.175 56.625 62.175H37.375C35.9692 62.175 34.825 61.0308 34.825 59.625V33.375C34.825 31.9691 35.9692 30.825 37.375 30.825H54.4817L59.175 35.5183V59.625Z" fill="white" stroke="white" stroke-width="0.15"/>
<path d="M52.2499 55.175H41.7499C41.2255 55.175 40.7999 55.6005 40.7999 56.125C40.7999 56.6494 41.2255 57.075 41.7499 57.075H52.2499C52.7743 57.075 53.1999 56.6494 53.1999 56.125C53.1999 55.6005 52.7743 55.175 52.2499 55.175Z" fill="white" stroke="white" stroke-width="0.15"/>
<path d="M46.5761 51.7243L46.576 51.7243C46.1071 51.4889 45.9149 50.9191 46.1505 50.4494L46.5761 51.7243ZM46.5761 51.7243C46.7127 51.7926 46.8572 51.825 46.9999 51.825C47.3494 51.825 47.6837 51.6313 47.8508 51.3008L47.851 51.3005L51.3509 44.3007C51.3509 44.3007 51.3509 44.3006 51.351 44.3005C51.4992 44.0058 51.482 43.6562 51.3091 43.377C51.1363 43.0979 50.8288 42.925 50.4999 42.925H45.037L47.8492 37.3006C48.0849 36.831 47.8927 36.2611 47.4238 36.0257L47.3901 36.0927L47.4239 36.0258C46.9521 35.788 46.3841 35.9843 46.1489 36.451L46.1488 36.4512L42.6489 43.451L42.7159 43.4847L42.6488 43.4512L42.6488 43.4511C42.5006 43.7459 42.5178 44.0955 42.6906 44.3747C42.8636 44.6541 43.1712 44.825 43.4999 44.825H48.9628L46.1506 50.4493L46.5761 51.7243Z" fill="white" stroke="white" stroke-width="0.15"/>
</svg>
