<svg width="93" height="93" viewBox="0 0 93 93" fill="none" xmlns="http://www.w3.org/2000/svg">
<circle cx="46.5" cy="46.5" r="42" fill="#5BC3E3" stroke="white" stroke-width="9"/>
<g clip-path="url(#clip0_0_146)">
<path d="M54.4921 33.9757L54.6992 34.1561V33.8814V30.6465C54.6992 30.0845 55.1548 29.6289 55.7168 29.6289H60.2871C60.8491 29.6289 61.3047 30.0845 61.3048 30.6465V39.8551V39.9119L61.3477 39.9493C61.4889 40.0724 61.9822 40.5022 62.5831 41.0258C63.79 42.0773 65.431 43.5071 65.5258 43.5901L65.526 43.5902C65.9497 43.9595 65.9938 44.6022 65.6246 45.026L65.7189 45.1081L65.6246 45.026C65.2555 45.4497 64.6128 45.4939 64.189 45.1247L63.797 44.7831L63.5899 44.6027V44.8774V62.6387C63.5899 63.2006 63.1343 63.6562 62.5723 63.6562H30.4278C29.8658 63.6562 29.4102 63.2006 29.4102 62.6387V44.8774V44.6027L29.2031 44.7831L28.8111 45.1247C28.3874 45.4938 27.7446 45.4497 27.3753 45.026C27.0061 44.6022 27.0503 43.9594 27.474 43.5902L27.3919 43.496L27.474 43.5902L45.8315 27.5941C46.2146 27.2603 46.7853 27.2603 47.1685 27.5941L54.4921 33.9757ZM56.8594 31.6641H56.7344V31.7891V35.8726V35.9295L56.7773 35.9669L59.0624 37.9581L59.2696 38.1386V37.8638V31.7891V31.6641H59.1446H56.8594ZM45.2324 61.4961V61.6211H45.3574H47.6426H47.7676V61.4961V53.0782C47.7676 52.6476 48.0387 52.2637 48.4444 52.1194C50.8164 51.2761 52.4141 49.0771 52.4141 46.6426C52.4141 44.79 51.4886 43.0735 50.0015 41.9875L49.8028 41.8424V42.0885V46.6426C49.8028 46.9125 49.6956 47.1713 49.5048 47.362L49.5047 47.3621L47.2196 49.6472C46.8222 50.0446 46.1779 50.0446 45.7805 49.6472L45.6921 49.7356L45.7805 49.6472L43.4954 47.3621C43.3045 47.1712 43.1973 46.9124 43.1973 46.6426V42.102V41.8519L42.9973 42.002C41.5561 43.0834 40.6621 44.792 40.6621 46.6426C40.6621 49.0914 42.2274 51.2917 44.5557 52.1194L44.5975 52.0016L44.5557 52.1194C44.9614 52.2637 45.2324 52.6476 45.2324 53.0782V61.4961ZM61.4297 61.6211H61.5547V61.4961V42.8862V42.8293L61.5118 42.7919L46.5821 29.7826L46.5 29.711L46.4179 29.7826L31.4882 42.7918L31.4453 42.8292V42.8861V61.4961V61.6211H31.5703H43.0723H43.1973V61.4961V53.8401V53.7611L43.126 53.7272C40.4048 52.4332 38.627 49.6788 38.627 46.6426C38.627 43.336 40.7352 40.364 43.8739 39.2481C44.1856 39.1375 44.5315 39.1849 44.8016 39.3756C45.0717 39.5663 45.2324 39.8763 45.2324 40.207V46.1693V46.2211L45.269 46.2577L46.4116 47.4003L46.4999 47.4887L46.5883 47.4003L47.7309 46.2577L47.7675 46.2211V46.1693V40.207C47.7675 39.8763 47.9282 39.5663 48.1984 39.3756C48.4686 39.1849 48.8146 39.1374 49.126 39.2481C52.3117 40.3806 54.4492 43.3536 54.4492 46.6426C54.4492 49.6668 52.6422 52.4237 49.8744 53.7285L49.8028 53.7623V53.8416V61.4961V61.6211H49.9278H61.4297Z" fill="white" stroke="#5BC3E3" stroke-width="0.25"/>
</g>
<defs>
<clipPath id="clip0_0_146">
<rect width="39" height="39" fill="white" transform="translate(27 26)"/>
</clipPath>
</defs>
</svg>
