<svg width="29" height="35" viewBox="0 0 29 35" fill="none" xmlns="http://www.w3.org/2000/svg">
<ellipse opacity="0.2" cx="14.0305" cy="32.0633" rx="14.0305" ry="2.93661" fill="#5BC3E3"/>
<path d="M14.0304 0C7.14294 0 1.53961 5.60333 1.53961 12.4908C1.53961 14.6954 2.12209 16.8629 3.22402 18.7588C3.48091 19.2008 3.76807 19.6316 4.07766 20.0391L13.4877 32.629H14.573L23.9831 20.0392C24.2927 19.6316 24.5798 19.2009 24.8368 18.7589C25.9387 16.8629 26.5212 14.6954 26.5212 12.4908C26.5212 5.60333 20.9179 0 14.0304 0ZM14.0304 16.6331C11.7463 16.6331 9.88804 14.7749 9.88804 12.4908C9.88804 10.2067 11.7463 8.34843 14.0304 8.34843C16.3145 8.34843 18.1727 10.2067 18.1727 12.4908C18.1727 14.7749 16.3145 16.6331 14.0304 16.6331Z" fill="#5BC3E3"/>
</svg>
